<svg xmlns="http://www.w3.org/2000/svg" viewBox="0 0 64 64" width="64" height="64">
  <!-- Background circle -->
  <circle cx="32" cy="32" r="30" fill="#8B5CF6" stroke="#7C3AED" stroke-width="2"/>
  
  <!-- Mountain peaks -->
  <path d="M10 42 L20 28 L28 35 L36 25 L44 32 L52 22 L60 35 L60 50 L10 50 Z" 
        fill="#FFFFFF" opacity="0.9"/>
  
  <!-- Second mountain layer -->
  <path d="M15 45 L25 35 L32 40 L40 30 L48 38 L55 28 L60 40 L60 50 L15 50 Z" 
        fill="#F3E8FF" opacity="0.7"/>
  
  <!-- Letter "R" -->
  <g transform="translate(20, 15)" fill="#FFFFFF" font-family="Arial, sans-serif" font-weight="bold" font-size="18">
    <path d="M2 2 L2 22 M2 2 L12 2 Q16 2 16 6 Q16 10 12 10 L2 10 M12 10 L16 22" 
          stroke="#FFFFFF" stroke-width="2.5" fill="none" stroke-linecap="round" stroke-linejoin="round"/>
  </g>
  
  <!-- Small adventure elements -->
  <circle cx="18" cy="20" r="1.5" fill="#FEF3C7"/>
  <circle cx="46" cy="18" r="1.5" fill="#FEF3C7"/>
  <circle cx="50" cy="45" r="1" fill="#FFFFFF" opacity="0.8"/>
</svg>